<svg xmlns="http://www.w3.org/2000/svg" viewBox="0 0 1200 675" width="1200" height="675" role="img" aria-label="Aether lab orb"><defs><radialGradient id="bg" cx="50%" cy="50%" r="70%"><stop offset="0%" stop-color="#1a1f2e"/><stop offset="100%" stop-color="#0a0e14"/></radialGradient><radialGradient id="halo" cx="50%" cy="50%" r="50%"><stop offset="0%" stop-color="#f4c56a" stop-opacity="0.45"/><stop offset="45%" stop-color="#8a5cf6" stop-opacity="0.20"/><stop offset="100%" stop-color="#8a5cf6" stop-opacity="0"/></radialGradient><radialGradient id="orb" cx="38%" cy="33%" r="72%"><stop offset="0%" stop-color="#fff6e0"/><stop offset="26%" stop-color="#f4c56a"/><stop offset="58%" stop-color="#d79b3c"/><stop offset="86%" stop-color="#8a5cf6"/><stop offset="100%" stop-color="#6d3fd4"/></radialGradient><radialGradient id="spec" cx="50%" cy="50%" r="50%"><stop offset="0%" stop-color="#ffffff" stop-opacity="0.75"/><stop offset="100%" stop-color="#ffffff" stop-opacity="0"/></radialGradient><filter id="soft" x="-60%" y="-60%" width="220%" height="220%"><feGaussianBlur stdDeviation="14"/></filter><filter id="glow" x="-80%" y="-80%" width="260%" height="260%"><feGaussianBlur stdDeviation="9"/></filter></defs><rect width="1200" height="675" fill="url(#bg)"/><g fill="#c9d4e8"><circle cx="120" cy="90" r="1.6" opacity=".55"/><circle cx="1064" cy="132" r="1.9" opacity=".5"/><circle cx="240" cy="560" r="1.4" opacity=".45"/><circle cx="950" cy="590" r="1.7" opacity=".5"/><circle cx="72" cy="360" r="1.2" opacity=".4"/><circle cx="1140" cy="420" r="1.3" opacity=".42"/><circle cx="330" cy="70" r="1.1" opacity=".38"/><circle cx="820" cy="46" r="1.5" opacity=".45"/><circle cx="640" cy="628" r="1.2" opacity=".4"/><circle cx="470" cy="620" r="1.4" opacity=".35"/></g><ellipse cx="600" cy="338" rx="470" ry="330" fill="url(#halo)"/><g filter="url(#glow)" opacity="0.55"><ellipse cx="600" cy="338" rx="330" ry="128" fill="none" stroke="#f4c56a" stroke-width="3" transform="rotate(-22 600 338)"/><ellipse cx="600" cy="338" rx="292" ry="108" fill="none" stroke="#8a5cf6" stroke-width="3" transform="rotate(34 600 338)"/></g><ellipse cx="600" cy="338" rx="365" ry="150" fill="none" stroke="#56c8dc" stroke-width="1.6" opacity="0.42" transform="rotate(-68 600 338)"/><ellipse cx="600" cy="338" rx="330" ry="128" fill="none" stroke="#f4c56a" stroke-width="2.2" opacity="0.66" transform="rotate(-22 600 338)"/><ellipse cx="600" cy="338" rx="292" ry="108" fill="none" stroke="#8a5cf6" stroke-width="2" opacity="0.6" transform="rotate(34 600 338)"/><circle cx="600" cy="338" r="190" fill="url(#orb)"/><ellipse cx="524" cy="264" rx="74" ry="52" fill="url(#spec)" filter="url(#soft)"/><g><circle cx="905" cy="248" r="22" fill="#f4c56a" opacity="0.35" filter="url(#glow)"/><circle cx="905" cy="248" r="11" fill="#f4c56a"/></g><g><circle cx="330" cy="212" r="16" fill="#8a5cf6" opacity="0.4" filter="url(#glow)"/><circle cx="330" cy="212" r="8" fill="#8a5cf6"/></g><g><circle cx="648" cy="556" r="13" fill="#56c8dc" opacity="0.4" filter="url(#glow)"/><circle cx="648" cy="556" r="6" fill="#56c8dc"/></g><g><circle cx="286" cy="430" r="11" fill="#ffeec8" opacity="0.35" filter="url(#glow)"/><circle cx="286" cy="430" r="5" fill="#ffeec8"/></g></svg>
